<svg xmlns="http://www.w3.org/2000/svg" xmlns:xlink="http://www.w3.org/1999/xlink" width="500" zoomAndPan="magnify" viewBox="0 0 375 374.999991" height="500" preserveAspectRatio="xMidYMid meet" version="1.0"><defs><clipPath id="9a9cdf8409"><path d="M 109.785156 107.496094 L 249.285156 107.496094 L 249.285156 251.496094 L 109.785156 251.496094 Z M 109.785156 107.496094 " clip-rule="nonzero"/></clipPath><clipPath id="ac48eca8d9"><path d="M 142.71875 156.808594 L 195 156.808594 L 195 234.058594 L 142.71875 234.058594 Z M 142.71875 156.808594 " clip-rule="nonzero"/></clipPath><clipPath id="bcdc3acd38"><path d="M 172 156.808594 L 216.21875 156.808594 L 216.21875 190 L 172 190 Z M 172 156.808594 " clip-rule="nonzero"/></clipPath></defs><g clip-path="url(#9a9cdf8409)"><path fill="#fd7f32" d="M 127.292969 214.328125 C 127.488281 214.644531 127.757812 215.082031 127.976562 215.445312 C 128.199219 215.804688 128.382812 216.078125 128.367188 216.085938 C 128.359375 216.089844 128.308594 216.023438 128.222656 215.914062 C 128.140625 215.804688 128.027344 215.652344 127.90625 215.476562 C 127.660156 215.128906 127.363281 214.703125 127.148438 214.394531 L 126.625 213.351562 C 126.847656 213.679688 127.070312 214.003906 127.292969 214.328125 Z M 151.5 120.96875 C 152.628906 120.371094 153.785156 119.820312 154.949219 119.289062 C 155.535156 119.03125 156.117188 118.769531 156.707031 118.527344 C 157.300781 118.289062 157.890625 118.035156 158.492188 117.816406 C 157.902344 118.09375 157.328125 118.402344 156.746094 118.695312 C 156.457031 118.84375 156.175781 119.003906 155.890625 119.15625 C 155.605469 119.316406 155.316406 119.464844 155.035156 119.628906 C 153.910156 120.273438 152.796875 120.929688 151.714844 121.636719 C 153.363281 120.761719 154.851562 120.050781 156.195312 119.480469 C 156.363281 119.40625 156.527344 119.335938 156.691406 119.265625 C 156.855469 119.199219 157.015625 119.132812 157.175781 119.066406 C 157.492188 118.941406 157.800781 118.816406 158.097656 118.695312 C 158.699219 118.46875 159.257812 118.257812 159.785156 118.070312 C 161.898438 117.320312 163.460938 116.910156 164.65625 116.617188 C 165.851562 116.328125 166.691406 116.191406 167.386719 116.074219 C 168.085938 115.980469 168.640625 115.90625 169.292969 115.835938 C 171.945312 115.535156 174.519531 115.410156 177.03125 115.433594 C 179.546875 115.464844 182 115.648438 184.414062 115.960938 C 185.054688 116.046875 185.308594 116.171875 184.78125 116.152344 C 184.371094 116.140625 183.976562 116.128906 183.589844 116.117188 C 183.203125 116.113281 182.824219 116.113281 182.460938 116.109375 C 182.09375 116.105469 181.738281 116.109375 181.394531 116.121094 C 181.050781 116.128906 180.714844 116.132812 180.390625 116.140625 C 179.746094 116.171875 179.136719 116.195312 178.570312 116.230469 C 178 116.277344 177.472656 116.308594 176.976562 116.355469 C 176.484375 116.40625 176.03125 116.457031 175.609375 116.5 C 175.1875 116.554688 174.800781 116.605469 174.449219 116.652344 C 174.273438 116.675781 174.101562 116.699219 173.941406 116.722656 C 173.78125 116.75 173.628906 116.773438 173.484375 116.796875 C 173.195312 116.847656 172.9375 116.890625 172.703125 116.929688 C 170.863281 117.285156 170.835938 117.371094 171.632812 117.308594 C 171.832031 117.292969 172.085938 117.269531 172.371094 117.242188 C 172.664062 117.214844 172.988281 117.191406 173.335938 117.160156 C 174.027344 117.089844 174.8125 117.050781 175.558594 117 C 175.933594 116.984375 176.296875 116.96875 176.640625 116.957031 C 176.980469 116.941406 177.296875 116.929688 177.578125 116.933594 C 178.136719 116.933594 178.535156 116.9375 178.65625 116.960938 C 178.957031 117.019531 179.335938 117.085938 179.769531 117.140625 C 179.992188 117.167969 180.222656 117.199219 180.464844 117.230469 C 180.710938 117.261719 180.96875 117.296875 181.230469 117.332031 C 181.5 117.363281 181.773438 117.398438 182.054688 117.433594 C 182.339844 117.472656 182.632812 117.515625 182.925781 117.558594 C 183.523438 117.632812 184.136719 117.738281 184.757812 117.835938 C 185.066406 117.882812 185.378906 117.9375 185.6875 117.996094 C 185.996094 118.054688 186.304688 118.109375 186.613281 118.167969 C 187.222656 118.292969 187.820312 118.421875 188.390625 118.554688 C 188.957031 118.695312 189.5 118.824219 189.992188 118.96875 C 190.484375 119.113281 190.929688 119.25 191.316406 119.386719 C 192.261719 119.730469 192.3125 119.929688 191.609375 120.007812 C 191.433594 120.027344 191.210938 120.03125 190.9375 120.046875 C 190.667969 120.058594 190.351562 120.0625 189.996094 120.0625 C 189.636719 120.058594 189.230469 120.0625 188.785156 120.0625 C 188.5625 120.0625 188.332031 120.058594 188.085938 120.058594 C 187.84375 120.0625 187.589844 120.0625 187.324219 120.066406 C 183.527344 119.417969 179.671875 119.117188 175.660156 119.21875 C 175.359375 119.230469 174.886719 119.261719 174.367188 119.300781 C 173.847656 119.351562 173.285156 119.40625 172.796875 119.453125 C 172.316406 119.597656 172.199219 119.675781 171.1875 119.910156 C 171.078125 119.9375 170.851562 119.988281 170.554688 120.046875 C 170.253906 120.109375 169.882812 120.179688 169.480469 120.273438 C 169.078125 120.367188 168.644531 120.457031 168.226562 120.5625 C 167.804688 120.667969 167.394531 120.773438 167.039062 120.863281 C 164.789062 121.234375 162.53125 121.746094 160.304688 122.386719 C 158.074219 123.023438 155.871094 123.792969 153.726562 124.695312 C 151.582031 125.589844 149.492188 126.601562 147.480469 127.714844 C 145.472656 128.824219 143.550781 130.039062 141.722656 131.320312 C 141.230469 131.671875 141.6875 131.191406 142.285156 130.617188 C 142.585938 130.332031 142.917969 130.023438 143.175781 129.773438 C 143.4375 129.527344 143.628906 129.347656 143.628906 129.308594 C 143.632812 129.121094 143.785156 128.816406 143.667969 128.722656 C 143.609375 128.675781 143.480469 128.679688 143.230469 128.78125 C 143.109375 128.832031 142.953125 128.90625 142.761719 129.007812 C 142.570312 129.113281 142.347656 129.25 142.078125 129.421875 C 141.925781 129.515625 141.710938 129.664062 141.441406 129.859375 C 141.171875 130.054688 140.851562 130.300781 140.484375 130.585938 C 140.390625 130.660156 140.296875 130.734375 140.199219 130.808594 C 140.101562 130.886719 140.003906 130.96875 139.902344 131.050781 C 139.699219 131.21875 139.484375 131.394531 139.261719 131.578125 C 139.039062 131.757812 138.8125 131.960938 138.578125 132.164062 C 138.34375 132.371094 138.101562 132.585938 137.851562 132.804688 C 136.867188 133.707031 135.789062 134.730469 134.722656 135.863281 C 133.660156 136.996094 132.589844 138.214844 131.59375 139.460938 C 131.183594 139.984375 130.804688 140.46875 130.464844 140.921875 C 130.132812 141.382812 129.824219 141.792969 129.554688 142.1875 C 129.285156 142.578125 129.042969 142.933594 128.820312 143.257812 C 128.605469 143.589844 128.414062 143.890625 128.242188 144.164062 C 128.15625 144.300781 128.074219 144.429688 127.996094 144.554688 C 127.921875 144.679688 127.851562 144.796875 127.785156 144.910156 C 127.652344 145.136719 127.535156 145.339844 127.429688 145.523438 C 127.21875 145.890625 127.066406 146.1875 126.941406 146.441406 C 126.691406 146.949219 126.542969 147.28125 126.34375 147.726562 C 126.140625 148.167969 125.863281 148.707031 125.390625 149.648438 C 125.300781 149.824219 125.207031 149.996094 125.125 150.171875 C 125.039062 150.34375 124.960938 150.511719 124.878906 150.679688 C 124.722656 151.011719 124.5625 151.328125 124.425781 151.636719 C 124.285156 151.945312 124.152344 152.242188 124.027344 152.523438 C 123.960938 152.667969 123.902344 152.804688 123.839844 152.941406 C 123.785156 153.078125 123.726562 153.210938 123.671875 153.339844 C 123.230469 154.382812 122.910156 155.242188 122.65625 155.933594 C 122.417969 156.628906 122.234375 157.152344 122.121094 157.550781 C 122.007812 157.945312 121.941406 158.203125 121.910156 158.355469 C 121.796875 158.972656 122.269531 157.925781 122.601562 157.320312 C 123.210938 156.25 123.386719 156.316406 124.066406 155.152344 C 124.234375 154.859375 124.445312 154.5 124.703125 154.023438 C 124.960938 153.539062 125.277344 152.957031 125.664062 152.242188 C 126.457031 150.800781 127.550781 148.789062 129.339844 146.082031 L 129.273438 146.203125 C 130.816406 143.820312 132.171875 142.113281 133.148438 140.964844 C 133.640625 140.394531 134.035156 139.960938 134.332031 139.65625 C 134.632812 139.355469 134.824219 139.183594 134.910156 139.140625 C 134.996094 139.09375 134.976562 139.175781 134.851562 139.382812 C 134.726562 139.59375 134.492188 139.921875 134.167969 140.394531 C 134 140.628906 133.8125 140.894531 133.601562 141.191406 C 133.390625 141.492188 133.15625 141.828125 132.902344 142.195312 C 132.640625 142.566406 132.375 142.976562 132.074219 143.414062 C 131.777344 143.855469 131.472656 144.339844 131.136719 144.851562 C 129.410156 147.597656 127.964844 150.34375 126.753906 153.144531 C 126.140625 154.542969 125.601562 155.957031 125.101562 157.386719 C 124.980469 157.746094 124.851562 158.101562 124.738281 158.464844 C 124.625 158.828125 124.507812 159.1875 124.394531 159.550781 C 124.285156 159.914062 124.179688 160.28125 124.074219 160.644531 C 123.964844 161.011719 123.867188 161.378906 123.769531 161.75 C 123.871094 161.53125 123.957031 161.34375 124.042969 161.167969 C 124.128906 160.996094 124.214844 160.832031 124.304688 160.65625 C 124.488281 160.304688 124.671875 159.886719 124.972656 159.230469 C 125.121094 158.902344 125.28125 158.507812 125.496094 158.035156 C 125.601562 157.796875 125.714844 157.535156 125.839844 157.253906 C 125.960938 156.96875 126.105469 156.667969 126.253906 156.332031 C 126.859375 155.003906 127.683594 153.253906 128.953125 150.96875 C 129.894531 149.285156 130.714844 148.03125 131.40625 147.050781 C 131.753906 146.558594 132.078125 146.140625 132.359375 145.769531 C 132.652344 145.402344 132.914062 145.085938 133.15625 144.800781 C 133.390625 144.515625 133.625 144.277344 133.832031 144.046875 C 134.046875 143.824219 134.238281 143.613281 134.4375 143.417969 C 134.636719 143.21875 134.832031 143.027344 135.03125 142.828125 C 135.128906 142.730469 135.230469 142.625 135.332031 142.523438 C 135.441406 142.417969 135.550781 142.308594 135.664062 142.199219 C 135.78125 142.082031 135.707031 142.203125 135.511719 142.476562 C 135.320312 142.753906 135.019531 143.191406 134.667969 143.6875 C 133.976562 144.699219 133.113281 145.988281 132.621094 146.847656 C 131.691406 148.21875 130.664062 149.910156 129.808594 151.484375 C 129.371094 152.265625 128.992188 153.023438 128.65625 153.679688 C 128.335938 154.339844 128.050781 154.898438 127.859375 155.308594 C 127.269531 156.492188 126.742188 157.707031 126.242188 158.898438 C 126.007812 159.5 125.757812 160.085938 125.546875 160.675781 C 125.4375 160.964844 125.332031 161.257812 125.222656 161.542969 C 125.125 161.832031 125.023438 162.117188 124.925781 162.398438 C 124.148438 164.652344 123.582031 166.699219 123.183594 168.242188 C 123.050781 168.714844 122.976562 169 122.914062 169.132812 C 122.851562 169.265625 122.8125 169.253906 122.789062 169.144531 C 122.761719 169.039062 122.753906 168.832031 122.753906 168.582031 C 122.757812 168.332031 122.773438 168.039062 122.789062 167.75 C 122.804688 167.457031 122.832031 167.054688 122.898438 166.597656 C 122.960938 166.136719 123.023438 165.609375 123.121094 165.058594 C 123.171875 164.78125 123.21875 164.496094 123.269531 164.210938 C 123.316406 163.925781 123.378906 163.640625 123.433594 163.355469 C 123.492188 163.070312 123.546875 162.785156 123.601562 162.507812 C 123.664062 162.230469 123.722656 161.960938 123.78125 161.703125 C 122.589844 165.914062 121.847656 170.390625 121.621094 174.832031 C 121.382812 179.273438 121.621094 183.667969 122.1875 187.746094 C 122.507812 190.066406 122.957031 192.445312 123.546875 194.769531 C 124.136719 197.097656 124.847656 199.382812 125.648438 201.527344 C 126.453125 203.675781 127.335938 205.683594 128.226562 207.492188 C 129.113281 209.296875 130.007812 210.894531 130.808594 212.238281 C 132.15625 214.464844 132.765625 215.425781 133.152344 216.140625 C 133.351562 216.496094 133.5 216.785156 133.6875 217.128906 C 133.878906 217.464844 134.113281 217.847656 134.484375 218.394531 C 135.199219 219.4375 136.574219 221.136719 136.636719 221.316406 C 136.664062 221.410156 136.332031 221.148438 135.449219 220.207031 C 135.339844 220.089844 135.21875 219.964844 135.089844 219.824219 C 134.964844 219.683594 134.828125 219.53125 134.683594 219.367188 C 134.539062 219.203125 134.382812 219.027344 134.21875 218.839844 C 134.054688 218.652344 133.886719 218.449219 133.703125 218.230469 C 132.972656 217.371094 132.113281 216.273438 131.113281 214.894531 C 130.824219 214.480469 130.574219 214.152344 130.382812 213.886719 C 130.191406 213.621094 130.039062 213.429688 129.925781 213.296875 C 129.699219 213.035156 129.617188 213.015625 129.632812 213.15625 C 129.667969 213.433594 130.085938 214.355469 130.546875 215.191406 C 130.992188 216.039062 132.039062 217.613281 131.726562 217.289062 C 131.648438 217.210938 131.480469 217.011719 131.207031 216.648438 C 131.074219 216.464844 130.90625 216.246094 130.710938 215.976562 C 130.511719 215.710938 130.296875 215.390625 130.039062 215.019531 C 129.03125 213.535156 127.484375 211.195312 125.644531 207.429688 C 125.527344 207.183594 125.410156 206.949219 125.300781 206.71875 C 125.1875 206.488281 125.089844 206.257812 124.988281 206.039062 C 124.785156 205.597656 124.59375 205.179688 124.425781 204.78125 C 124.257812 204.382812 124.089844 204.011719 123.945312 203.65625 C 123.800781 203.300781 123.664062 202.96875 123.539062 202.65625 C 123.285156 202.03125 123.085938 201.484375 122.898438 201.011719 C 122.722656 200.539062 122.574219 200.140625 122.445312 199.800781 C 122.316406 199.464844 122.21875 199.191406 122.132812 198.96875 C 122.046875 198.746094 121.980469 198.574219 121.921875 198.449219 C 121.8125 198.191406 121.75 198.105469 121.714844 198.097656 C 120.964844 197.929688 120.347656 198.1875 119.800781 198.683594 C 119.800781 198.6875 119.804688 198.710938 119.816406 198.753906 C 119.832031 198.796875 119.851562 198.859375 119.875 198.9375 C 119.921875 199.097656 119.992188 199.324219 120.078125 199.597656 C 120.242188 200.144531 120.496094 200.863281 120.738281 201.582031 C 120.867188 201.9375 121 202.292969 121.125 202.628906 C 121.246094 202.960938 121.363281 203.273438 121.46875 203.535156 C 121.574219 203.800781 121.660156 204.019531 121.71875 204.175781 C 121.75 204.253906 121.773438 204.3125 121.789062 204.355469 C 121.804688 204.394531 121.808594 204.417969 121.808594 204.417969 C 121.753906 204.421875 121.589844 204.160156 121.386719 203.8125 C 121.289062 203.640625 121.179688 203.445312 121.070312 203.25 C 120.96875 203.054688 120.867188 202.859375 120.773438 202.683594 C 119.671875 199.824219 118.710938 196.511719 118.164062 193.964844 C 117.21875 189.546875 116.8125 185.554688 116.738281 181.355469 C 116.65625 180.878906 116.601562 180.40625 116.535156 179.929688 C 116.503906 179.6875 116.472656 179.449219 116.441406 179.207031 C 116.417969 178.96875 116.390625 178.726562 116.363281 178.480469 C 116.339844 178.246094 116.316406 178 116.285156 177.695312 C 116.253906 177.386719 116.234375 177.023438 116.199219 176.546875 C 116.347656 174.460938 116.585938 172.464844 116.90625 170.503906 C 117.222656 168.542969 117.628906 166.617188 118.136719 164.675781 C 118.640625 162.730469 119.242188 160.769531 119.976562 158.746094 C 120.714844 156.726562 121.582031 154.640625 122.640625 152.464844 C 122.308594 152.316406 122.0625 152.203125 121.8125 152.089844 C 122.558594 150.417969 123.371094 148.773438 124.25 147.164062 C 125.136719 145.753906 125.992188 144.550781 126.941406 143.273438 C 127.886719 142 128.941406 140.660156 130.304688 139.046875 C 131.917969 137.136719 133.789062 135.160156 135.910156 133.164062 C 136.980469 132.179688 138.101562 131.175781 139.308594 130.195312 C 140.511719 129.21875 141.777344 128.242188 143.121094 127.292969 C 144.195312 126.539062 145.886719 125.355469 147.828125 124.175781 C 149.765625 122.988281 151.945312 121.8125 153.875 120.910156 C 153.191406 121.128906 152.496094 121.335938 151.816406 121.578125 Z M 176.910156 243.933594 C 179.371094 244.238281 182.191406 244.375 184.277344 244.40625 C 184.667969 244.410156 185.03125 244.417969 185.375 244.421875 C 185.714844 244.421875 186.035156 244.421875 186.328125 244.421875 C 186.910156 244.425781 187.402344 244.429688 187.808594 244.433594 C 188.207031 244.4375 188.507812 244.453125 188.710938 244.472656 C 188.914062 244.492188 189.019531 244.519531 189.027344 244.5625 C 189.039062 244.601562 188.949219 244.652344 188.757812 244.714844 C 188.566406 244.773438 188.277344 244.839844 187.882812 244.917969 C 187.492188 244.992188 186.996094 245.078125 186.398438 245.152344 C 186.097656 245.191406 185.773438 245.230469 185.425781 245.277344 C 185.074219 245.308594 184.695312 245.34375 184.292969 245.378906 C 181.816406 245.589844 179.304688 245.667969 176.769531 245.589844 C 174.234375 245.511719 171.679688 245.292969 169.117188 244.914062 C 168.472656 244.828125 167.835938 244.710938 167.191406 244.605469 C 166.550781 244.492188 165.910156 244.359375 165.265625 244.234375 C 164.628906 244.089844 163.984375 243.957031 163.34375 243.800781 C 162.703125 243.640625 162.0625 243.488281 161.421875 243.308594 C 158.867188 242.609375 156.3125 241.757812 153.796875 240.722656 C 153.171875 240.464844 151.816406 239.863281 150.269531 239.050781 C 148.71875 238.246094 146.972656 237.242188 145.511719 236.3125 C 145.292969 236.167969 144.925781 235.921875 144.5 235.628906 C 144.285156 235.488281 144.0625 235.328125 143.835938 235.160156 C 143.613281 234.996094 143.382812 234.828125 143.160156 234.667969 C 142.71875 234.34375 142.320312 234.019531 142.027344 233.792969 C 141.738281 233.5625 141.566406 233.421875 141.597656 233.425781 C 143.039062 233.800781 144.773438 234.363281 146.972656 235.09375 C 146.996094 235.101562 147.34375 235.316406 147.902344 235.65625 C 148.464844 235.984375 149.230469 236.449219 150.109375 236.925781 C 150.542969 237.171875 151.011719 237.414062 151.484375 237.660156 C 151.71875 237.78125 151.953125 237.914062 152.195312 238.03125 C 152.4375 238.148438 152.675781 238.265625 152.914062 238.386719 C 153.390625 238.625 153.863281 238.84375 154.3125 239.050781 C 154.539062 239.152344 154.757812 239.253906 154.964844 239.351562 C 155.179688 239.445312 155.382812 239.53125 155.578125 239.617188 C 154.941406 239.1875 154.324219 238.726562 153.710938 238.28125 C 153.40625 238.046875 153.105469 237.816406 152.800781 237.585938 C 152.652344 237.46875 152.5 237.355469 152.351562 237.238281 L 151.910156 236.882812 C 151.394531 236.492188 149.207031 235.082031 150.761719 235.839844 C 151.222656 236.066406 151.636719 236.246094 151.992188 236.398438 C 152.347656 236.546875 152.644531 236.679688 152.898438 236.765625 C 153.410156 236.949219 153.714844 237.035156 153.855469 237.039062 C 154.140625 237.042969 153.769531 236.71875 153.042969 236.222656 C 152.683594 235.964844 152.238281 235.65625 151.738281 235.324219 C 151.492188 235.152344 151.234375 234.972656 150.96875 234.785156 C 150.703125 234.601562 150.421875 234.414062 150.152344 234.210938 C 149.875 234.011719 149.597656 233.8125 149.316406 233.609375 C 149.039062 233.40625 148.769531 233.195312 148.5 232.988281 C 147.957031 232.582031 147.449219 232.164062 146.988281 231.78125 C 148.320312 232.730469 149.601562 233.539062 150.796875 234.273438 C 151.398438 234.632812 151.972656 234.980469 152.539062 235.292969 C 152.820312 235.453125 153.09375 235.613281 153.367188 235.757812 C 153.636719 235.90625 153.90625 236.050781 154.167969 236.191406 C 156.261719 237.308594 158.046875 238.128906 159.527344 238.773438 C 160.265625 239.109375 160.941406 239.371094 161.535156 239.628906 C 162.128906 239.871094 162.65625 240.085938 163.125 240.273438 C 163.59375 240.457031 163.992188 240.617188 164.335938 240.765625 C 164.679688 240.910156 164.972656 241.027344 165.210938 241.136719 C 166.171875 241.578125 166.355469 241.78125 166.289062 241.945312 C 166.226562 242.105469 165.921875 242.207031 165.945312 242.390625 C 169.554688 243.21875 173.226562 243.726562 176.910156 243.933594 Z M 143.023438 230.300781 C 143.5625 230.792969 144.050781 231.199219 144.460938 231.550781 C 144.664062 231.730469 144.851562 231.886719 145.023438 232.027344 C 145.195312 232.167969 145.34375 232.292969 145.476562 232.40625 C 145.996094 232.851562 146.195312 233.039062 146.003906 232.976562 C 145.90625 232.945312 145.71875 232.84375 145.433594 232.675781 C 145.285156 232.589844 145.117188 232.488281 144.921875 232.371094 C 144.726562 232.253906 144.503906 232.117188 144.261719 231.957031 C 143.769531 231.640625 143.171875 231.25 142.484375 230.761719 C 142.3125 230.640625 142.128906 230.511719 141.941406 230.382812 C 141.757812 230.246094 141.566406 230.105469 141.371094 229.960938 C 141.171875 229.8125 140.96875 229.664062 140.753906 229.507812 C 140.546875 229.347656 140.332031 229.179688 140.109375 229.007812 C 139.363281 228.558594 138.636719 228.082031 137.910156 227.601562 C 136.648438 226.441406 135.445312 225.226562 134.28125 223.976562 C 136.28125 225.957031 138.421875 227.78125 140.644531 229.480469 C 141.371094 229.722656 142.125 230.011719 143.023438 230.300781 Z M 126.75 197.601562 C 126.644531 197.277344 126.539062 196.945312 126.429688 196.609375 C 126.328125 196.273438 126.226562 195.929688 126.125 195.582031 C 126.019531 195.238281 125.929688 194.882812 125.835938 194.527344 C 125.742188 194.175781 125.640625 193.820312 125.558594 193.460938 C 125.199219 192.035156 124.921875 190.597656 124.683594 189.28125 C 124.625 188.949219 124.570312 188.628906 124.519531 188.316406 C 124.464844 188.003906 124.425781 187.695312 124.378906 187.40625 C 124.339844 187.113281 124.289062 186.832031 124.253906 186.5625 C 124.21875 186.292969 124.183594 186.039062 124.152344 185.800781 C 124.117188 185.5625 124.085938 185.335938 124.054688 185.128906 C 124.03125 184.921875 124.003906 184.730469 123.980469 184.558594 C 123.929688 184.214844 123.882812 183.949219 123.835938 183.777344 C 123.75 183.382812 123.601562 182.308594 123.503906 181.097656 C 123.472656 180.792969 123.453125 180.480469 123.433594 180.167969 C 123.414062 179.855469 123.394531 179.542969 123.375 179.242188 C 123.347656 178.636719 123.320312 178.066406 123.300781 177.597656 C 123.269531 176.667969 123.222656 176.152344 123.136719 176.617188 C 123.117188 176.734375 123.089844 176.910156 123.066406 177.15625 C 123.039062 177.40625 123.003906 177.722656 122.984375 178.121094 C 122.9375 178.914062 122.886719 180.023438 122.910156 181.519531 C 122.914062 181.832031 122.898438 181.785156 122.867188 181.511719 C 122.832031 181.234375 122.78125 180.734375 122.75 180.132812 C 122.734375 179.832031 122.714844 179.507812 122.695312 179.175781 C 122.683594 178.84375 122.671875 178.503906 122.660156 178.171875 C 122.65625 178.007812 122.648438 177.84375 122.644531 177.683594 C 122.644531 177.523438 122.640625 177.367188 122.640625 177.21875 C 122.636719 176.921875 122.632812 176.652344 122.628906 176.417969 C 122.730469 175.167969 122.875 173.554688 123.089844 172.167969 C 123.113281 171.996094 123.136719 171.828125 123.160156 171.660156 C 123.1875 171.496094 123.214844 171.335938 123.242188 171.179688 C 123.296875 170.871094 123.34375 170.585938 123.390625 170.328125 C 123.484375 169.820312 123.574219 169.4375 123.625 169.25 C 123.96875 168.054688 124.300781 166.929688 124.960938 164.746094 C 125.304688 163.65625 125.714844 162.300781 126.347656 160.578125 C 126.5 160.144531 126.683594 159.691406 126.863281 159.210938 C 127.046875 158.730469 127.257812 158.230469 127.46875 157.695312 C 127.921875 156.640625 128.417969 155.472656 129.046875 154.207031 C 129.128906 154.039062 129.203125 153.878906 129.28125 153.730469 C 129.359375 153.582031 129.433594 153.441406 129.503906 153.304688 C 129.644531 153.039062 129.773438 152.804688 129.890625 152.59375 C 130.132812 152.179688 130.332031 151.875 130.492188 151.636719 C 130.652344 151.398438 130.78125 151.234375 130.886719 151.109375 C 130.996094 150.988281 131.082031 150.902344 131.160156 150.820312 C 131.34375 150.632812 131.527344 150.417969 131.742188 150.15625 C 131.957031 149.898438 132.191406 149.589844 132.457031 149.214844 C 132.730469 148.839844 133.039062 148.402344 133.402344 147.878906 C 133.585938 147.617188 133.785156 147.335938 133.996094 147.03125 C 134.207031 146.726562 134.445312 146.40625 134.691406 146.054688 C 135.699219 144.660156 137.015625 142.871094 138.933594 140.679688 C 140.851562 138.496094 143.367188 135.886719 146.886719 133.09375 C 147.164062 132.871094 147.433594 132.65625 147.710938 132.453125 C 147.980469 132.246094 148.25 132.039062 148.519531 131.835938 C 149.0625 131.445312 149.59375 131.050781 150.148438 130.675781 C 150.695312 130.292969 151.265625 129.929688 151.847656 129.550781 C 152.140625 129.363281 152.445312 129.179688 152.753906 128.992188 C 153.058594 128.800781 153.378906 128.617188 153.707031 128.429688 C 153.871094 128.339844 154.066406 128.226562 154.289062 128.101562 C 154.511719 127.980469 154.761719 127.851562 155.023438 127.710938 C 155.542969 127.429688 156.128906 127.152344 156.675781 126.882812 C 157.222656 126.621094 157.742188 126.394531 158.128906 126.21875 C 158.519531 126.054688 158.78125 125.945312 158.820312 125.9375 C 159.03125 125.878906 159.304688 125.792969 159.621094 125.699219 C 159.9375 125.605469 160.289062 125.503906 160.648438 125.394531 C 161.011719 125.289062 161.386719 125.191406 161.738281 125.09375 C 161.914062 125.046875 162.085938 125 162.253906 124.957031 C 162.417969 124.921875 162.574219 124.882812 162.71875 124.851562 C 163.300781 124.722656 163.691406 124.652344 163.671875 124.726562 C 163.65625 124.796875 163.226562 125 162.167969 125.425781 C 161.808594 125.578125 161.472656 125.71875 161.160156 125.855469 C 160.847656 125.988281 160.5625 126.125 160.300781 126.246094 C 159.773438 126.484375 159.347656 126.707031 158.996094 126.890625 C 158.824219 126.980469 158.667969 127.0625 158.53125 127.136719 C 158.398438 127.210938 158.285156 127.28125 158.1875 127.339844 C 157.988281 127.460938 157.863281 127.546875 157.796875 127.605469 C 157.667969 127.71875 157.777344 127.71875 158.054688 127.640625 C 158.195312 127.601562 158.375 127.542969 158.589844 127.46875 C 158.804688 127.394531 159.054688 127.308594 159.324219 127.214844 C 159.597656 127.125 159.886719 127.011719 160.203125 126.910156 C 160.515625 126.804688 160.84375 126.695312 161.175781 126.582031 C 161.507812 126.472656 161.851562 126.371094 162.1875 126.265625 C 162.355469 126.214844 162.519531 126.160156 162.6875 126.113281 C 162.851562 126.066406 163.015625 126.019531 163.175781 125.972656 C 163.5 125.886719 163.804688 125.796875 164.089844 125.726562 C 164.375 125.65625 164.640625 125.59375 164.871094 125.542969 C 165.328125 125.4375 165.664062 125.390625 165.785156 125.402344 C 166.125 125.292969 166.4375 125.191406 166.730469 125.097656 C 167.023438 125.007812 167.296875 124.925781 167.550781 124.847656 C 168.058594 124.683594 168.496094 124.570312 168.878906 124.453125 C 169.261719 124.339844 169.597656 124.25 169.898438 124.164062 C 170.203125 124.082031 170.476562 124.003906 170.742188 123.929688 C 171.371094 123.765625 171.976562 123.59375 172.578125 123.457031 C 172.878906 123.386719 173.179688 123.308594 173.480469 123.242188 C 173.78125 123.175781 174.082031 123.113281 174.386719 123.046875 C 176.421875 122.839844 178.335938 122.742188 180.542969 122.738281 C 182.140625 122.738281 184.121094 122.800781 185.917969 122.964844 C 186.050781 122.953125 186.183594 122.941406 186.3125 122.933594 C 186.445312 122.925781 186.574219 122.917969 186.707031 122.910156 C 186.972656 122.894531 187.246094 122.882812 187.539062 122.867188 C 187.753906 122.855469 188 122.859375 188.308594 122.863281 C 188.617188 122.867188 188.988281 122.863281 189.453125 122.875 C 190.878906 123.109375 192.261719 123.410156 193.589844 123.726562 C 194.914062 124.050781 196.183594 124.417969 197.386719 124.796875 C 199.78125 125.574219 201.898438 126.4375 203.652344 127.269531 C 204.144531 127.5 204.628906 127.746094 205.117188 127.980469 L 205.84375 128.351562 C 206.085938 128.476562 206.332031 128.597656 206.574219 128.726562 C 207.054688 128.984375 207.546875 129.238281 208.035156 129.511719 C 208.277344 129.648438 208.527344 129.777344 208.773438 129.917969 C 209.019531 130.058594 209.265625 130.199219 209.515625 130.339844 C 209.644531 130.414062 209.769531 130.484375 209.894531 130.554688 C 210.019531 130.628906 210.144531 130.703125 210.273438 130.78125 C 210.523438 130.929688 210.78125 131.078125 211.039062 131.230469 C 211.296875 131.386719 211.554688 131.546875 211.816406 131.707031 C 211.949219 131.789062 212.078125 131.867188 212.210938 131.949219 C 212.34375 132.035156 212.476562 132.117188 212.609375 132.203125 C 213.679688 132.875 214.78125 133.621094 215.945312 134.445312 C 218.785156 136.46875 221.429688 138.613281 223.550781 140.941406 C 227.328125 145.074219 230.261719 149.679688 232.539062 154.550781 C 233.421875 156.441406 234.101562 158.167969 234.75 160.0625 C 236.015625 163.789062 236.816406 167.359375 237.273438 170.148438 C 237.300781 170.324219 237.332031 170.492188 237.359375 170.660156 C 237.386719 170.828125 237.410156 170.992188 237.433594 171.15625 C 237.484375 171.476562 237.535156 171.789062 237.578125 172.082031 C 237.65625 172.671875 237.738281 173.203125 237.800781 173.667969 C 237.859375 174.128906 237.917969 174.527344 237.972656 174.84375 C 238.019531 175.164062 238.0625 175.40625 238.105469 175.5625 C 238.171875 175.800781 238.242188 176.058594 238.3125 176.320312 C 238.371094 176.589844 238.4375 176.859375 238.496094 177.128906 C 238.558594 177.398438 238.628906 177.660156 238.679688 177.902344 C 238.734375 178.144531 238.789062 178.371094 238.847656 178.5625 C 239.0625 179.332031 239.273438 179.589844 239.460938 178.460938 C 239.769531 176.597656 239.992188 174.535156 240.046875 172.160156 C 240.050781 172.011719 240.050781 171.859375 240.054688 171.710938 C 240.054688 171.558594 240.054688 171.40625 240.054688 171.253906 C 240.050781 170.945312 240.050781 170.632812 240.050781 170.316406 C 240.042969 170 240.027344 169.679688 240.015625 169.351562 C 240.003906 169.023438 239.992188 168.691406 239.964844 168.355469 C 239.941406 168.015625 239.917969 167.671875 239.894531 167.320312 C 239.859375 166.972656 239.824219 166.617188 239.789062 166.257812 C 239.757812 165.894531 239.710938 165.527344 239.660156 165.15625 C 239.609375 164.785156 239.566406 164.402344 239.5 164.019531 C 239.273438 162.476562 238.9375 160.84375 238.5 159.105469 C 238.054688 157.371094 237.492188 155.53125 236.769531 153.601562 C 236.046875 151.671875 235.167969 149.644531 234.082031 147.542969 C 232.988281 145.449219 231.699219 143.269531 230.152344 141.050781 C 229.304688 139.832031 228.4375 138.703125 227.59375 137.628906 C 227.164062 137.105469 226.75 136.578125 226.320312 136.085938 C 226.109375 135.835938 225.902344 135.59375 225.695312 135.347656 C 225.480469 135.109375 225.273438 134.875 225.066406 134.640625 C 223.402344 132.777344 221.789062 131.171875 220.273438 129.769531 C 218.757812 128.363281 217.339844 127.152344 216.035156 126.097656 C 214.722656 125.046875 213.535156 124.136719 212.464844 123.339844 C 211.933594 122.953125 211.425781 122.582031 210.945312 122.226562 C 210.460938 121.886719 210.019531 121.558594 209.597656 121.257812 C 209.175781 120.957031 208.785156 120.671875 208.421875 120.402344 C 208.054688 120.144531 207.714844 119.894531 207.402344 119.65625 C 207.089844 119.417969 206.800781 119.207031 206.535156 118.996094 C 206.269531 118.789062 206.027344 118.589844 205.808594 118.402344 C 205.363281 118.035156 205.003906 117.699219 204.710938 117.390625 C 204.492188 117.164062 204.425781 117 204.496094 116.882812 C 204.5625 116.765625 204.765625 116.6875 205.085938 116.667969 C 205.402344 116.644531 205.839844 116.667969 206.375 116.730469 C 206.90625 116.796875 207.535156 116.914062 208.246094 117.0625 C 209.660156 117.378906 211.382812 117.875 213.242188 118.535156 C 215.101562 119.199219 217.09375 120.035156 219.058594 120.980469 C 219.511719 121.199219 219.992188 121.445312 220.414062 121.648438 C 220.839844 121.847656 221.191406 122.023438 221.398438 122.085938 C 221.601562 122.152344 221.65625 122.109375 221.460938 121.902344 C 221.363281 121.796875 221.207031 121.652344 220.972656 121.453125 C 220.738281 121.261719 220.425781 121.023438 220.03125 120.726562 C 218.796875 119.832031 217.898438 119.179688 217.253906 118.710938 C 216.949219 118.480469 216.71875 118.300781 216.558594 118.167969 C 216.394531 118.03125 216.304688 117.933594 216.273438 117.867188 C 216.152344 117.617188 217.03125 117.910156 218.351562 118.507812 C 218.515625 118.582031 218.824219 118.738281 219.191406 118.941406 C 219.558594 119.140625 219.992188 119.371094 220.398438 119.609375 C 220.804688 119.839844 221.191406 120.0625 221.476562 120.21875 C 221.765625 120.375 221.945312 120.476562 221.949219 120.449219 C 221.957031 120.425781 221.785156 120.277344 221.34375 119.972656 C 221.125 119.816406 220.839844 119.621094 220.476562 119.378906 C 220.113281 119.132812 219.667969 118.855469 219.136719 118.519531 C 218.871094 118.347656 218.578125 118.175781 218.261719 117.988281 C 217.945312 117.804688 217.609375 117.601562 217.242188 117.390625 C 216.871094 117.183594 216.476562 116.964844 216.058594 116.730469 C 215.636719 116.496094 215.179688 116.265625 214.699219 116.015625 C 212.769531 115.023438 210.34375 113.878906 207.273438 112.738281 C 206.925781 112.609375 206.359375 112.386719 205.675781 112.140625 C 205.332031 112.015625 204.964844 111.875 204.578125 111.742188 C 204.191406 111.609375 203.785156 111.46875 203.382812 111.328125 C 201.757812 110.78125 200.085938 110.285156 199.253906 110.050781 C 197.714844 109.59375 195.289062 109 192.53125 108.550781 C 189.773438 108.09375 186.6875 107.785156 183.882812 107.667969 C 181.074219 107.550781 178.546875 107.605469 176.886719 107.667969 C 176.472656 107.675781 176.113281 107.695312 175.816406 107.703125 C 175.519531 107.710938 175.289062 107.710938 175.125 107.707031 C 174.804688 107.695312 174.773438 107.65625 175.109375 107.578125 C 175.144531 107.566406 175.027344 107.570312 174.789062 107.585938 C 174.550781 107.601562 174.195312 107.636719 173.753906 107.675781 C 173.308594 107.71875 172.78125 107.765625 172.207031 107.84375 C 171.632812 107.914062 171.003906 107.988281 170.363281 108.09375 C 170.042969 108.144531 169.714844 108.195312 169.390625 108.242188 C 169.066406 108.296875 168.742188 108.355469 168.425781 108.414062 C 168.105469 108.472656 167.789062 108.53125 167.484375 108.585938 C 167.179688 108.648438 166.882812 108.710938 166.597656 108.769531 C 166.3125 108.832031 166.042969 108.886719 165.789062 108.941406 C 165.535156 109 165.300781 109.058594 165.085938 109.109375 C 164.65625 109.210938 164.308594 109.296875 164.082031 109.355469 C 161.109375 110.164062 158.660156 111.011719 156.589844 111.796875 C 154.519531 112.59375 152.820312 113.320312 151.375 113.988281 C 151.195312 114.070312 151.015625 114.152344 150.839844 114.230469 C 150.667969 114.3125 150.5 114.394531 150.332031 114.472656 C 150 114.628906 149.679688 114.78125 149.371094 114.929688 C 148.757812 115.230469 148.1875 115.515625 147.644531 115.78125 C 147.109375 116.054688 146.605469 116.316406 146.113281 116.566406 C 145.628906 116.828125 145.160156 117.074219 144.695312 117.324219 C 144.523438 117.414062 144.058594 117.695312 143.433594 118.078125 C 143.117188 118.265625 142.769531 118.496094 142.398438 118.738281 C 142.023438 118.980469 141.625 119.234375 141.226562 119.511719 C 140.828125 119.789062 140.414062 120.066406 140.019531 120.351562 C 139.625 120.636719 139.238281 120.921875 138.871094 121.1875 C 138.507812 121.460938 138.175781 121.722656 137.875 121.953125 C 137.722656 122.070312 137.582031 122.179688 137.453125 122.28125 C 137.324219 122.382812 137.207031 122.480469 137.105469 122.566406 C 134.726562 124.515625 132.609375 126.457031 130.289062 128.929688 C 129.132812 130.164062 127.917969 131.527344 126.640625 133.128906 C 125.359375 134.726562 124.003906 136.546875 122.582031 138.699219 C 122.828125 138.296875 123.054688 137.917969 123.273438 137.558594 C 123.492188 137.203125 123.707031 136.871094 123.90625 136.554688 C 124.300781 135.921875 124.679688 135.382812 125.007812 134.886719 C 125.175781 134.636719 125.335938 134.40625 125.492188 134.183594 C 125.648438 133.964844 125.796875 133.753906 125.941406 133.550781 C 126.226562 133.140625 126.503906 132.773438 126.769531 132.414062 C 122.839844 137.039062 119.515625 142.226562 116.894531 147.714844 C 115.59375 150.460938 114.464844 153.28125 113.519531 156.148438 C 112.585938 159.015625 111.820312 161.921875 111.246094 164.84375 C 110.675781 167.761719 110.28125 170.691406 110.054688 173.601562 C 109.835938 176.507812 109.785156 179.390625 109.882812 182.234375 C 110.070312 187.925781 110.902344 193.441406 112.183594 198.632812 C 112.207031 198.738281 112.25 198.910156 112.3125 199.136719 C 112.378906 199.363281 112.460938 199.644531 112.554688 199.964844 C 112.652344 200.285156 112.753906 200.648438 112.878906 201.035156 C 113.003906 201.417969 113.140625 201.832031 113.28125 202.261719 C 113.859375 203.964844 114.589844 205.871094 115.144531 207.148438 C 115.808594 208.695312 116.515625 210.238281 117.292969 211.738281 L 117.582031 212.300781 L 117.878906 212.855469 C 118.082031 213.226562 118.273438 213.597656 118.480469 213.964844 C 118.894531 214.695312 119.304688 215.421875 119.738281 216.125 C 121.441406 218.96875 123.320312 221.585938 125.179688 223.90625 C 126.867188 226 128.582031 227.890625 130.226562 229.558594 C 131.871094 231.230469 133.449219 232.679688 134.859375 233.914062 C 137.6875 236.367188 139.828125 237.960938 140.585938 238.707031 C 140.871094 238.976562 141.394531 239.417969 142.164062 239.960938 C 142.546875 240.238281 142.988281 240.546875 143.488281 240.871094 C 143.742188 241.03125 144.003906 241.203125 144.28125 241.378906 C 144.558594 241.554688 144.851562 241.730469 145.15625 241.914062 C 146.378906 242.65625 147.828125 243.453125 149.480469 244.269531 C 151.128906 245.089844 152.988281 245.914062 155.027344 246.691406 C 155.390625 246.835938 155.761719 246.964844 156.128906 247.101562 C 156.5 247.230469 156.867188 247.367188 157.238281 247.496094 C 157.984375 247.742188 158.726562 248 159.480469 248.226562 C 160.980469 248.699219 162.503906 249.097656 164.027344 249.46875 C 164.410156 249.554688 164.792969 249.644531 165.175781 249.730469 L 165.75 249.855469 L 166.324219 249.972656 C 166.707031 250.046875 167.089844 250.125 167.472656 250.199219 C 167.855469 250.265625 168.238281 250.332031 168.621094 250.402344 L 169.195312 250.5 L 169.769531 250.585938 C 170.152344 250.640625 170.535156 250.699219 170.917969 250.753906 C 171.300781 250.804688 171.683594 250.847656 172.0625 250.898438 C 172.445312 250.941406 172.824219 250.992188 173.203125 251.027344 C 176.246094 251.332031 179.238281 251.449219 182.117188 251.386719 C 184.996094 251.316406 187.769531 251.082031 190.371094 250.710938 C 191.125 250.617188 191.863281 250.484375 192.601562 250.363281 C 192.96875 250.304688 193.332031 250.230469 193.695312 250.160156 C 194.0625 250.089844 194.421875 250.023438 194.78125 249.949219 C 196.21875 249.644531 197.625 249.316406 198.996094 248.9375 C 201.738281 248.1875 204.339844 247.308594 206.792969 246.304688 C 211.707031 244.308594 216.027344 241.902344 219.785156 239.328125 C 223.542969 236.753906 226.734375 234.015625 229.449219 231.300781 C 230.808594 229.945312 232.035156 228.582031 233.164062 227.246094 C 234.296875 225.917969 235.3125 224.59375 236.234375 223.3125 C 239.585938 218.675781 242.53125 213.339844 244.699219 207.78125 C 245.230469 206.386719 245.738281 204.992188 246.175781 203.582031 C 246.40625 202.882812 246.601562 202.175781 246.808594 201.472656 C 246.910156 201.125 246.996094 200.769531 247.089844 200.417969 C 247.179688 200.066406 247.28125 199.71875 247.359375 199.363281 C 248.042969 196.554688 248.542969 193.777344 248.84375 191.09375 C 248.878906 190.75 248.917969 190.398438 248.953125 190.046875 C 248.96875 189.867188 248.988281 189.691406 249.007812 189.511719 C 249.023438 189.332031 249.035156 189.15625 249.050781 188.976562 C 249.078125 188.617188 249.109375 188.253906 249.136719 187.894531 C 249.15625 187.535156 249.175781 187.175781 249.195312 186.816406 C 249.242188 186.105469 249.246094 185.402344 249.265625 184.734375 C 249.28125 184.0625 249.265625 183.421875 249.261719 182.832031 C 249.25 182.242188 249.21875 181.703125 249.195312 181.230469 C 249.171875 180.757812 249.125 180.351562 249.089844 180.03125 C 249.011719 179.390625 248.929688 179.09375 248.839844 179.28125 C 248.453125 180.101562 248.082031 182.011719 247.53125 184.210938 C 247.394531 184.761719 247.25 185.328125 247.105469 185.898438 C 246.945312 186.46875 246.785156 187.046875 246.625 187.621094 C 246.449219 188.191406 246.285156 188.757812 246.101562 189.308594 C 245.917969 189.851562 245.742188 190.382812 245.554688 190.886719 C 245.429688 191.210938 245.289062 191.636719 245.140625 192.085938 C 244.988281 192.535156 244.816406 193.007812 244.664062 193.433594 C 244.578125 193.683594 244.488281 193.910156 244.398438 194.125 C 244.304688 194.339844 244.21875 194.546875 244.132812 194.75 C 243.96875 195.15625 243.785156 195.546875 243.59375 195.984375 C 243.398438 196.433594 243.191406 196.921875 242.945312 197.492188 C 242.707031 198.082031 242.40625 198.773438 242.058594 199.625 C 241.621094 200.644531 240.820312 202.691406 239.738281 204.941406 C 238.675781 207.195312 237.308594 209.632812 236.070312 211.5625 C 236.050781 211.753906 236.058594 211.894531 236.046875 212.074219 C 236.03125 212.25 235.992188 212.460938 235.878906 212.789062 C 235.820312 212.949219 235.636719 213.335938 235.394531 213.773438 C 235.148438 214.207031 234.875 214.710938 234.648438 215.101562 C 233.800781 216.320312 232.914062 217.492188 231.992188 218.648438 C 231.0625 219.796875 230.09375 220.921875 229.066406 222.039062 C 228.128906 223.050781 226.835938 224.359375 225.667969 225.445312 C 225.375 225.714844 225.089844 225.976562 224.828125 226.214844 C 224.566406 226.457031 224.3125 226.671875 224.09375 226.867188 C 223.875 227.0625 223.679688 227.230469 223.523438 227.371094 C 223.367188 227.503906 223.246094 227.609375 223.171875 227.675781 C 222.183594 228.578125 220.953125 229.585938 220.066406 230.320312 C 219.164062 231.035156 218.617188 231.484375 218.996094 231.25 C 219.484375 230.941406 219.910156 230.679688 220.273438 230.460938 C 220.628906 230.238281 220.925781 230.058594 221.167969 229.921875 C 221.652344 229.652344 221.898438 229.542969 221.960938 229.589844 C 222.089844 229.6875 221.457031 230.390625 220.289062 231.441406 C 219.121094 232.488281 217.394531 233.863281 215.339844 235.261719 C 213.285156 236.65625 210.90625 238.085938 208.496094 239.304688 C 204.1875 241.078125 200.070312 242.210938 196.382812 242.90625 C 194.542969 243.257812 192.800781 243.488281 191.191406 243.648438 C 190.789062 243.683594 190.394531 243.730469 190.007812 243.753906 C 189.621094 243.78125 189.242188 243.804688 188.875 243.832031 C 188.503906 243.859375 188.140625 243.863281 187.789062 243.882812 C 187.4375 243.894531 187.09375 243.914062 186.757812 243.914062 C 184.078125 243.964844 181.972656 243.820312 180.527344 243.65625 C 179.808594 243.570312 179.25 243.476562 178.871094 243.402344 C 178.488281 243.320312 178.277344 243.238281 178.253906 243.175781 C 178.214844 243.105469 180.703125 243.113281 182.015625 243.019531 C 184.296875 243.078125 186.5625 243.015625 188.871094 242.828125 C 189.941406 242.738281 191.113281 242.609375 192.234375 242.453125 C 193.078125 242.269531 194.742188 241.882812 194.621094 241.855469 C 194.355469 241.785156 193.886719 241.761719 193.101562 241.796875 C 192.707031 241.804688 192.234375 241.828125 191.664062 241.867188 C 191.375 241.882812 191.066406 241.898438 190.734375 241.917969 C 190.398438 241.9375 190.039062 241.96875 189.648438 241.980469 C 189.257812 242.003906 188.839844 242.023438 188.398438 242.046875 C 187.949219 242.0625 187.472656 242.078125 186.964844 242.097656 C 186.457031 242.109375 185.917969 242.121094 185.34375 242.128906 C 184.769531 242.128906 184.164062 242.128906 183.523438 242.128906 C 180.957031 242.085938 177.820312 241.933594 174.042969 241.378906 C 171.746094 241.324219 169.625 241.15625 167.507812 240.886719 C 164.132812 239.890625 160.609375 238.488281 157.816406 237.082031 C 155.152344 235.75 152.652344 234.203125 151.359375 233.214844 C 150.886719 232.847656 152.800781 233.835938 155.175781 234.953125 C 158.417969 236.472656 161.726562 237.695312 164.964844 238.621094 C 166.585938 239.078125 168.191406 239.464844 169.761719 239.792969 C 171.332031 240.117188 172.871094 240.363281 174.359375 240.570312 C 174.730469 240.613281 175.097656 240.660156 175.464844 240.707031 C 175.832031 240.753906 176.195312 240.78125 176.554688 240.820312 C 177.269531 240.902344 177.976562 240.945312 178.664062 241 C 179.007812 241.027344 179.347656 241.039062 179.683594 241.0625 C 180.023438 241.078125 180.351562 241.105469 180.679688 241.109375 C 181.335938 241.128906 181.976562 241.160156 182.59375 241.160156 C 185.074219 241.195312 187.246094 241.101562 189.027344 240.988281 C 189.269531 240.972656 189.519531 240.953125 189.777344 240.9375 C 190.035156 240.921875 190.296875 240.890625 190.570312 240.863281 C 190.84375 240.839844 191.128906 240.8125 191.421875 240.785156 C 191.710938 240.746094 192.015625 240.710938 192.328125 240.671875 C 193.585938 240.519531 195.015625 240.296875 196.695312 239.96875 C 197.046875 239.824219 197.371094 239.699219 197.675781 239.570312 C 197.980469 239.4375 198.273438 239.308594 198.574219 239.179688 C 198.722656 239.113281 198.875 239.050781 199.027344 238.980469 C 199.183594 238.910156 199.339844 238.839844 199.503906 238.761719 C 199.828125 238.609375 200.183594 238.457031 200.574219 238.261719 C 200.988281 238.148438 201.371094 238.046875 201.71875 237.953125 C 202.070312 237.855469 202.386719 237.757812 202.679688 237.675781 C 203.269531 237.507812 203.757812 237.34375 204.203125 237.203125 C 204.648438 237.066406 205.042969 236.925781 205.441406 236.78125 C 205.640625 236.710938 205.839844 236.636719 206.042969 236.5625 C 206.25 236.488281 206.460938 236.402344 206.683594 236.3125 C 206.953125 236.207031 207.230469 236.09375 207.515625 235.980469 C 207.800781 235.855469 208.09375 235.730469 208.394531 235.601562 C 208.996094 235.347656 209.613281 235.042969 210.246094 234.753906 C 211.5 234.136719 212.792969 233.472656 213.984375 232.789062 C 214.007812 232.746094 214.277344 232.566406 214.710938 232.273438 C 214.933594 232.128906 215.195312 231.957031 215.488281 231.765625 C 215.78125 231.566406 216.109375 231.347656 216.460938 231.109375 C 217.867188 230.160156 219.636719 228.871094 221.222656 227.5625 C 222.816406 226.261719 224.21875 224.949219 225.035156 224.125 C 225.839844 223.289062 226.089844 222.976562 225.320312 223.601562 C 224.792969 224.035156 224.597656 224.136719 224.414062 224.214844 C 224.234375 224.296875 224.070312 224.367188 223.59375 224.730469 C 223.359375 224.917969 223.035156 225.160156 222.59375 225.515625 C 222.484375 225.605469 222.367188 225.703125 222.238281 225.804688 C 222.113281 225.90625 221.976562 226.015625 221.828125 226.128906 C 221.535156 226.355469 221.214844 226.628906 220.835938 226.914062 C 220.648438 227.058594 220.449219 227.210938 220.242188 227.371094 C 220.136719 227.453125 220.027344 227.535156 219.917969 227.621094 C 219.804688 227.707031 219.691406 227.792969 219.574219 227.878906 C 219.335938 228.054688 219.085938 228.238281 218.824219 228.433594 C 218.5625 228.628906 218.28125 228.820312 217.988281 229.03125 C 216.8125 229.859375 215.394531 230.820312 213.640625 231.863281 C 212.339844 232.636719 211.054688 233.308594 209.84375 233.902344 C 209.539062 234.042969 209.238281 234.183594 208.941406 234.320312 C 208.796875 234.386719 208.648438 234.453125 208.503906 234.519531 C 208.359375 234.582031 208.214844 234.644531 208.074219 234.703125 C 207.789062 234.824219 207.511719 234.941406 207.238281 235.058594 C 206.964844 235.167969 206.699219 235.269531 206.441406 235.371094 C 206.179688 235.46875 205.929688 235.570312 205.6875 235.65625 C 205.441406 235.742188 205.203125 235.828125 204.976562 235.90625 C 204.75 235.984375 204.53125 236.058594 204.320312 236.128906 C 204.109375 236.195312 203.910156 236.257812 203.714844 236.316406 C 202.953125 236.558594 202.34375 236.710938 201.9375 236.804688 C 200.496094 237.125 198.84375 237.476562 196.886719 237.8125 C 194.933594 238.140625 192.675781 238.449219 190.042969 238.65625 C 189.714844 238.683594 189.378906 238.703125 189.039062 238.722656 C 188.699219 238.742188 188.351562 238.765625 188 238.78125 C 187.292969 238.804688 186.5625 238.839844 185.804688 238.84375 C 185.050781 238.863281 184.269531 238.84375 183.464844 238.835938 C 183.058594 238.824219 182.648438 238.8125 182.234375 238.796875 C 181.816406 238.785156 181.394531 238.753906 180.964844 238.734375 C 177.53125 238.527344 173.671875 238.035156 169.429688 236.972656 C 168.65625 236.777344 168.558594 236.703125 168.910156 236.726562 C 169.261719 236.75 170.0625 236.886719 171.105469 237.050781 C 171.359375 237.09375 171.683594 237.152344 172.0625 237.207031 C 172.441406 237.261719 172.867188 237.335938 173.328125 237.394531 C 173.792969 237.453125 174.289062 237.53125 174.800781 237.585938 C 175.058594 237.613281 175.320312 237.640625 175.582031 237.671875 C 175.714844 237.6875 175.84375 237.699219 175.976562 237.714844 L 176.375 237.75 C 178.484375 237.945312 180.570312 238.015625 181.460938 238.035156 C 182.078125 238.0625 182.695312 238.058594 183.3125 238.066406 C 183.617188 238.074219 183.925781 238.0625 184.230469 238.058594 C 184.535156 238.054688 184.839844 238.054688 185.144531 238.042969 C 186.363281 238 187.570312 237.941406 188.761719 237.828125 C 191.148438 237.613281 193.492188 237.265625 195.789062 236.773438 C 198.085938 236.28125 200.339844 235.667969 202.550781 234.910156 C 204.757812 234.152344 206.921875 233.269531 209.046875 232.253906 C 213.929688 229.894531 218.402344 226.933594 222.46875 223.386719 C 223.050781 222.613281 224.910156 220.441406 223.730469 221.359375 C 223.042969 221.886719 221.738281 223.015625 220.097656 224.269531 C 218.464844 225.527344 216.5 226.914062 214.601562 228.0625 C 214.21875 228.289062 212.734375 229.265625 211.199219 230.136719 C 209.667969 231.015625 208.097656 231.796875 207.738281 231.984375 C 205.84375 232.992188 204.1875 233.722656 202.722656 234.292969 C 201.253906 234.867188 199.980469 235.289062 198.808594 235.613281 C 198.519531 235.695312 198.234375 235.777344 197.953125 235.851562 C 197.671875 235.917969 197.398438 235.988281 197.128906 236.054688 C 196.589844 236.191406 196.058594 236.292969 195.539062 236.402344 C 195.277344 236.460938 195.019531 236.503906 194.757812 236.550781 C 194.496094 236.597656 194.234375 236.644531 193.96875 236.691406 C 193.441406 236.777344 192.902344 236.851562 192.347656 236.9375 C 190.777344 237.152344 189.164062 237.3125 187.511719 237.40625 C 187.097656 237.425781 186.683594 237.457031 186.265625 237.464844 C 185.847656 237.476562 185.425781 237.488281 185.003906 237.5 C 184.582031 237.503906 184.160156 237.503906 183.734375 237.503906 C 183.308594 237.507812 182.878906 237.488281 182.449219 237.480469 C 179.011719 237.382812 175.476562 237.003906 171.945312 236.257812 C 171.414062 236.144531 170.878906 236.019531 170.332031 235.902344 C 170.0625 235.839844 169.785156 235.773438 169.507812 235.707031 C 169.230469 235.636719 168.949219 235.574219 168.667969 235.496094 C 168.101562 235.347656 167.515625 235.203125 166.917969 235.027344 C 166.617188 234.941406 166.308594 234.863281 166 234.765625 C 165.6875 234.671875 165.371094 234.574219 165.050781 234.476562 C 163.761719 234.066406 162.371094 233.59375 160.847656 233 C 159.332031 232.402344 157.679688 231.683594 155.882812 230.78125 C 152.039062 228.84375 148.664062 226.625 145.640625 224.230469 C 142.621094 221.832031 139.957031 219.242188 137.566406 216.46875 C 135.183594 213.6875 133.074219 210.71875 131.226562 207.492188 C 129.382812 204.265625 127.796875 200.78125 126.542969 196.953125 C 126.542969 196.953125 126.746094 197.597656 126.75 197.601562 " fill-opacity="1" fill-rule="nonzero"/></g><path fill="#fd7f32" d="M 233.554688 212.507812 C 234.667969 211.007812 235.738281 209.40625 236.714844 207.796875 C 237.691406 206.1875 238.570312 204.574219 239.335938 203.058594 C 239.464844 202.792969 239.371094 203.105469 239.207031 203.574219 C 239.03125 204.039062 238.800781 204.652344 238.664062 205.011719 C 238.457031 205.429688 238.234375 205.902344 237.992188 206.378906 C 237.746094 206.855469 237.5 207.347656 237.257812 207.796875 C 237.007812 208.246094 236.78125 208.667969 236.582031 209.015625 C 236.378906 209.359375 236.214844 209.628906 236.109375 209.792969 C 235.027344 211.464844 233.933594 212.964844 232.808594 214.382812 C 231.683594 215.796875 230.523438 217.128906 229.285156 218.4375 C 230.824219 216.542969 232.246094 214.5625 233.554688 212.507812 " fill-opacity="1" fill-rule="nonzero"/><path fill="#fd7f32" d="M 131.214844 153.875 C 131.105469 154.222656 130.875 154.824219 130.933594 154.855469 C 130.984375 154.878906 131.316406 154.339844 131.527344 154.050781 C 131.011719 155.027344 130.503906 156.128906 130.035156 157.167969 C 129.8125 157.691406 129.585938 158.199219 129.394531 158.675781 C 129.203125 159.15625 129.015625 159.59375 128.867188 159.984375 C 128.597656 160.671875 128.386719 161.210938 128.222656 161.625 C 128.0625 162.035156 127.933594 162.308594 127.851562 162.488281 C 127.785156 162.636719 127.785156 162.53125 127.808594 162.359375 C 127.835938 162.183594 127.890625 161.941406 127.902344 161.8125 C 128.023438 161.457031 128.132812 161.101562 128.261719 160.753906 L 128.644531 159.703125 C 128.914062 159.011719 129.179688 158.316406 129.472656 157.632812 C 130.054688 156.265625 130.675781 154.914062 131.363281 153.59375 L 131.214844 153.875 " fill-opacity="1" fill-rule="nonzero"/><path fill="#fd7f32" d="M 137.832031 216.070312 C 137.441406 215.691406 137.195312 215.425781 136.9375 215.171875 C 136.765625 214.933594 136.597656 214.679688 136.425781 214.429688 C 136.257812 214.179688 136.089844 213.925781 135.925781 213.683594 C 135.609375 213.183594 135.308594 212.722656 135.085938 212.335938 C 135.070312 212.308594 135.121094 212.378906 135.21875 212.511719 C 135.320312 212.644531 135.464844 212.835938 135.632812 213.054688 C 135.800781 213.273438 135.980469 213.523438 136.167969 213.753906 C 136.351562 213.988281 136.527344 214.210938 136.671875 214.386719 C 136.871094 214.703125 137.089844 215.007812 137.289062 215.296875 C 137.488281 215.582031 137.667969 215.851562 137.832031 216.070312 " fill-opacity="1" fill-rule="nonzero"/><path fill="#fd7f32" d="M 131.363281 153.59375 C 131.203125 153.859375 130.96875 154.257812 130.78125 154.574219 C 130.601562 154.890625 130.460938 155.125 130.46875 155.042969 C 130.476562 154.867188 131.042969 153.539062 131.40625 152.730469 C 131.582031 152.519531 131.933594 151.96875 131.882812 152.1875 C 131.828125 152.425781 131.382812 153.371094 131.175781 153.945312 C 131.214844 153.875 131.363281 153.59375 131.363281 153.59375 " fill-opacity="1" fill-rule="nonzero"/><path fill="#fd7f32" d="M 126.542969 196.953125 C 126.542969 196.953125 126.746094 197.597656 126.75 197.601562 C 126.675781 197.324219 126.574219 196.949219 126.492188 196.632812 C 126.414062 196.320312 126.363281 196.066406 126.371094 196.035156 C 126.40625 195.9375 126.609375 196.464844 126.757812 196.722656 C 126.855469 197.023438 126.972656 197.394531 127.09375 197.773438 C 127.222656 198.152344 127.359375 198.546875 127.484375 198.902344 C 127.601562 199.257812 127.726562 199.570312 127.808594 199.796875 C 127.851562 199.910156 127.886719 200.003906 127.910156 200.066406 C 127.933594 200.128906 127.945312 200.167969 127.945312 200.167969 C 127.921875 200.261719 127.847656 200.238281 127.570312 199.65625 C 127.527344 199.566406 127.457031 199.410156 127.378906 199.214844 C 127.300781 199.015625 127.210938 198.777344 127.113281 198.523438 C 126.910156 198.015625 126.710938 197.425781 126.542969 196.953125 " fill-opacity="1" fill-rule="nonzero"/><path fill="#fd7f32" d="M 121.148438 188.648438 C 121.035156 186.050781 121.042969 183.679688 121.199219 183.054688 C 121.214844 182.988281 121.242188 183.152344 121.28125 183.460938 C 121.300781 183.617188 121.324219 183.808594 121.351562 184.023438 C 121.378906 184.242188 121.410156 184.484375 121.445312 184.742188 C 121.480469 185 121.511719 185.273438 121.550781 185.550781 C 121.589844 185.828125 121.632812 186.109375 121.675781 186.386719 C 121.753906 186.941406 121.851562 187.472656 121.933594 187.902344 C 122.019531 188.878906 122.222656 190.28125 122.402344 191.421875 C 122.5 191.988281 122.589844 192.492188 122.644531 192.847656 C 122.699219 193.203125 122.734375 193.402344 122.703125 193.375 C 122.574219 193.246094 122.347656 192.617188 122.058594 191.75 C 121.914062 191.316406 121.773438 190.816406 121.613281 190.289062 C 121.464844 189.765625 121.308594 189.207031 121.148438 188.648438 " fill-opacity="1" fill-rule="nonzero"/><path fill="#fd7f32" d="M 120.765625 160.066406 C 120.613281 160.507812 120.464844 160.933594 120.328125 161.328125 C 120.1875 161.722656 120.082031 162.089844 119.976562 162.410156 C 119.875 162.730469 119.785156 163 119.71875 163.214844 C 119.652344 163.425781 119.605469 163.574219 119.574219 163.644531 C 119.535156 163.738281 119.59375 163.378906 119.703125 162.898438 C 119.8125 162.421875 119.953125 161.820312 120.046875 161.417969 C 120.179688 161.015625 120.355469 160.484375 120.507812 160.035156 C 120.667969 159.585938 120.800781 159.226562 120.835938 159.167969 C 120.957031 158.980469 120.816406 159.585938 120.765625 160.066406 " fill-opacity="1" fill-rule="nonzero"/><path fill="#fd7f32" d="M 129.273438 146.203125 C 129.308594 146.226562 129.382812 146.183594 129.363281 146.292969 C 129.328125 146.488281 129.234375 146.773438 129.167969 147.019531 C 128.957031 147.222656 128.632812 147.625 128.582031 147.558594 C 128.570312 147.542969 128.679688 147.320312 128.828125 147.03125 C 128.972656 146.746094 129.167969 146.402344 129.308594 146.136719 C 129.339844 146.082031 129.273438 146.203125 129.273438 146.203125 " fill-opacity="1" fill-rule="nonzero"/><path fill="#fd7f32" d="M 160.558594 241.574219 C 162.574219 241.992188 164.597656 242.3125 166.617188 242.535156 C 164.59375 242.3125 162.574219 241.992188 160.558594 241.574219 " fill-opacity="1" fill-rule="nonzero"/><path fill="#fd7f32" d="M 154.960938 239.324219 C 156.957031 240.230469 159 241.035156 161.078125 241.734375 C 160.714844 241.652344 160.417969 241.585938 159.972656 241.46875 C 159.316406 241.304688 158.566406 241.066406 157.855469 240.859375 C 157.523438 240.691406 157.179688 240.523438 156.84375 240.355469 C 156.675781 240.273438 156.511719 240.1875 156.351562 240.109375 C 156.191406 240.023438 156.039062 239.941406 155.890625 239.863281 C 155.496094 239.644531 155.265625 239.503906 154.960938 239.324219 " fill-opacity="1" fill-rule="nonzero"/><g clip-path="url(#ac48eca8d9)"><path fill="#880000" d="M 176.964844 195.042969 C 171.839844 183.140625 164.332031 166.511719 160.03125 156.808594 L 142.730469 156.808594 L 163.484375 203.484375 L 177.078125 234.058594 L 194.355469 195.457031 C 191.425781 194.46875 188.289062 193.917969 185.019531 193.917969 C 182.320312 193.917969 179.6875 194.285156 177.214844 194.976562 C 177.167969 195.089844 177.125 195.179688 177.078125 195.296875 C 177.03125 195.203125 177.011719 195.136719 176.964844 195.042969 " fill-opacity="1" fill-rule="nonzero"/></g><g clip-path="url(#bcdc3acd38)"><path fill="#e64a1a" d="M 216.207031 156.808594 L 172.136719 156.808594 L 172.136719 172.519531 L 188.085938 172.519531 L 178.65625 189.378906 C 181.835938 188.164062 185.269531 187.519531 188.863281 187.519531 C 191.929688 187.519531 194.882812 188.003906 197.648438 188.875 L 216.207031 156.808594 " fill-opacity="1" fill-rule="nonzero"/></g></svg>